# xmcd
#
# Track frame offsets: 
#        152
#        10977
#        26465
#        38692
#        47705
#        60967
#        73382
#        87072
#        98007
#        109787
#        122917
#        136720
#        152170
#        161830
#
# Disc length: 2304 seconds
#
# Revision: 0
# Processed by: cddbd v1.4PL0 Copyright (c) Steve Scherf et al.
# Submitted via: ExactAudioCopy v0.90b4
#
DISCID=ae08fe0e
DTITLE=Whitstein Brothers - Old time duets
DYEAR=1900
DGENRE=Bluegrass
TTITLE0=Mansion on the hill
TTITLE1=We parted by the riverside
TTITLE2=There's an open dor waiting
TTITLE3=Sinner you'd better get ready
TTITLE4=We met in the saddle
TTITLE5=I'm troubled
TTITLE6=That silver heared daddy of mine
TTITLE7=Seven year blues
TTITLE8=Weary lonesome blies
TTITLE9=Somewhere in Tennessee
TTITLE10=Maple on the hill
TTITLE11=If I could hear my mother pray again
TTITLE12=Pitfall
TTITLE13=Beautiful lost river valley
EXTD=
EXTT0=
EXTT1=
EXTT2=
EXTT3=
EXTT4=
EXTT5=
EXTT6=
EXTT7=
EXTT8=
EXTT9=
EXTT10=
EXTT11=
EXTT12=
EXTT13=
PLAYORDER=
